<svg xmlns="http://www.w3.org/2000/svg" xmlns:xlink="http://www.w3.org/1999/xlink" width="500" zoomAndPan="magnify" viewBox="0 0 375 374.999991" height="500" preserveAspectRatio="xMidYMid meet" version="1.0"><path fill="#ffffff" d="M 180.558594 354.84375 C 179.96875 354.136719 179.625 351.996094 179.78125 350.003906 C 180.027344 346.808594 179.84375 346.398438 178.042969 346.109375 C 176.933594 345.933594 174.953125 345.152344 173.636719 344.378906 C 171.414062 343.0625 171.097656 343.0625 169.09375 344.378906 C 166.789062 345.886719 164.296875 345.503906 164.296875 343.636719 C 164.296875 342.90625 162.996094 342.40625 160.675781 342.238281 C 157.539062 342.011719 157.0625 341.714844 157.121094 340.058594 C 157.214844 337.367188 154.617188 337.554688 148.441406 340.6875 C 143.082031 343.402344 138.683594 343.964844 137.15625 342.121094 C 136.433594 341.253906 136.804688 340.554688 138.753906 339.113281 C 140.148438 338.082031 141.292969 336.472656 141.292969 335.539062 C 141.292969 334.550781 142.109375 333.527344 143.246094 333.097656 C 145.816406 332.121094 147.621094 329.949219 146.464844 329.230469 C 145.175781 328.433594 137.261719 329.503906 133.832031 330.9375 C 132.199219 331.617188 130.128906 332.175781 129.234375 332.175781 C 126.878906 332.175781 126.195312 329.625 128.160156 328.160156 C 129.058594 327.492188 129.636719 326.492188 129.453125 325.941406 C 129.265625 325.386719 129.074219 323.976562 129.027344 322.804688 C 128.953125 321.03125 128.226562 320.441406 124.691406 319.265625 C 120.050781 317.730469 118.140625 315.796875 119.707031 314.230469 C 120.414062 313.527344 121.160156 313.542969 122.570312 314.296875 C 123.867188 314.992188 126.457031 315.132812 130.6875 314.734375 C 134.777344 314.351562 137.515625 314.484375 138.710938 315.125 C 139.707031 315.660156 141.53125 315.976562 142.761719 315.828125 L 145 315.5625 L 142.910156 313.144531 C 141.070312 311.015625 139.949219 310.621094 133.601562 309.886719 C 122.957031 308.652344 121.316406 308.140625 121 305.953125 C 120.847656 304.914062 121.0625 304.0625 121.476562 304.0625 C 121.886719 304.0625 122.96875 303.511719 123.878906 302.835938 C 125.511719 301.628906 125.511719 301.597656 123.828125 300.308594 C 122.890625 299.59375 121.117188 298.992188 119.886719 298.976562 C 118.652344 298.964844 117.167969 298.375 116.582031 297.667969 C 115.683594 296.585938 115.933594 296.238281 118.179688 295.453125 C 121.578125 294.269531 121.578125 293.089844 118.183594 292.414062 L 115.523438 291.878906 L 118.824219 289.800781 L 122.125 287.71875 L 118.078125 288.207031 C 114.234375 288.671875 112.5625 287.769531 115.308594 286.714844 C 117.617188 285.828125 116.652344 284.84375 111.886719 283.222656 C 106.757812 281.480469 104.722656 279.804688 106.082031 278.445312 C 106.628906 277.894531 108.382812 277.921875 111.175781 278.519531 C 114.078125 279.140625 116.632812 279.164062 119.203125 278.585938 C 122.742188 277.789062 123.136719 277.886719 125.53125 280.171875 C 126.9375 281.511719 129.6875 283.078125 131.640625 283.652344 C 133.976562 284.339844 136.527344 286.113281 139.09375 288.832031 C 143.191406 293.171875 146.910156 295.199219 151.652344 295.679688 C 156.191406 296.140625 155.75 294.429688 150.878906 292.679688 C 146.488281 291.097656 145.113281 289.167969 147.683594 288.183594 C 149.863281 287.347656 149.101562 286.28125 145.550781 285.21875 C 143.179688 284.507812 142.144531 283.722656 142.144531 282.628906 C 142.144531 281.765625 141.570312 281.058594 140.867188 281.058594 C 140.164062 281.058594 138.820312 280.292969 137.882812 279.355469 C 136.949219 278.417969 135.65625 277.652344 135.019531 277.652344 C 134.378906 277.652344 132.941406 276.941406 131.824219 276.070312 C 130.707031 275.203125 128.257812 274.011719 126.382812 273.421875 C 118.371094 270.902344 117 267.429688 124.019531 267.429688 C 127.566406 267.429688 127.824219 267.285156 127.367188 265.539062 C 126.121094 260.777344 129.316406 257.707031 131.207031 261.851562 C 131.730469 263 133.488281 264.570312 135.117188 265.34375 C 137.882812 266.65625 138.292969 266.652344 141.363281 265.265625 C 147.6875 262.414062 148.886719 258.957031 143.585938 258.859375 C 141.359375 258.820312 140.296875 258.0625 137.726562 254.6875 C 134.519531 250.476562 134.417969 249.539062 137.175781 249.539062 C 138.980469 249.539062 139.066406 249.191406 137.835938 246.894531 C 136.75 244.863281 137.546875 241.871094 139.171875 241.871094 C 139.820312 241.871094 140.847656 242.878906 141.457031 244.109375 C 142.222656 245.652344 144.070312 246.914062 147.382812 248.15625 C 150.03125 249.152344 153.476562 251.035156 155.046875 252.34375 C 158.578125 255.292969 162.3125 255.273438 161.898438 252.304688 C 161.707031 250.929688 162.066406 250.386719 163.175781 250.375 C 164.027344 250.371094 165.28125 250.007812 165.964844 249.578125 C 167.039062 248.898438 167.007812 248.570312 165.753906 247.179688 C 164.949219 246.292969 164.289062 245.214844 164.28125 244.785156 C 164.273438 244.351562 163.296875 243.082031 162.117188 241.960938 C 160.335938 240.269531 159.632812 240.074219 158.007812 240.816406 C 155.289062 242.054688 153.84375 240.949219 154.539062 238.167969 C 155.027344 236.234375 154.835938 235.90625 153.230469 235.90625 C 152.074219 235.90625 151.1875 235.253906 150.910156 234.203125 C 150.597656 233.011719 149.75 232.5 148.089844 232.5 C 146.179688 232.5 145.792969 232.183594 146.132812 230.890625 C 146.703125 228.699219 144.992188 227.828125 143.347656 229.46875 C 141.710938 231.105469 140.441406 230.472656 140.441406 228.019531 C 140.441406 226.597656 140.214844 226.421875 139.417969 227.214844 C 138.050781 228.582031 135.328125 228.519531 135.328125 227.125 C 135.328125 226.511719 135.890625 225.265625 136.578125 224.355469 C 138.320312 222.050781 138.1875 221.109375 135.972656 220.132812 C 134.921875 219.671875 133.921875 218.527344 133.753906 217.589844 C 133.585938 216.652344 132.859375 215.222656 132.144531 214.414062 C 131.023438 213.148438 130.992188 212.390625 131.925781 209.058594 C 132.925781 205.480469 132.875 205.027344 131.25 203.289062 C 129.101562 200.984375 128.019531 197.121094 129.304688 196.328125 C 130.828125 195.386719 139.136719 202.597656 142.996094 208.210938 C 144.167969 209.914062 146.746094 212.871094 148.726562 214.785156 C 150.707031 216.695312 152.542969 218.933594 152.808594 219.761719 C 153.070312 220.585938 154.785156 221.863281 156.621094 222.597656 C 159.699219 223.832031 160.332031 223.816406 164.894531 222.382812 C 167.609375 221.527344 172.230469 220.308594 175.15625 219.671875 C 180.710938 218.464844 181.6875 217.660156 178.730469 216.722656 C 176.636719 216.058594 176.980469 214.292969 179.273438 213.910156 C 180.171875 213.761719 182.152344 213.074219 183.675781 212.378906 C 187.152344 210.800781 187.550781 207.792969 184.289062 207.792969 C 183.101562 207.792969 181.933594 207.273438 181.6875 206.636719 C 181.320312 205.679688 180.597656 205.710938 177.480469 206.832031 C 174.417969 207.933594 173.515625 207.984375 172.628906 207.089844 C 171.738281 206.199219 171.933594 205.691406 173.667969 204.359375 L 175.796875 202.71875 L 172.765625 202.699219 C 169.191406 202.675781 166.371094 200.898438 167.058594 199.101562 C 167.339844 198.378906 169.585938 197.425781 172.304688 196.878906 C 177.246094 195.886719 182.1875 192.957031 182.1875 191.019531 C 182.1875 189.613281 181.460938 189.644531 178.777344 191.179688 C 176.304688 192.59375 171.453125 192.847656 170.683594 191.605469 C 170.394531 191.132812 171.101562 190.390625 172.253906 189.953125 C 175.527344 188.707031 175.910156 187.28125 172.808594 187.902344 C 170.585938 188.34375 170.082031 188.136719 169.683594 186.609375 C 169.113281 184.425781 168.765625 184.390625 165.175781 186.179688 C 161.699219 187.914062 156.628906 189.101562 156.628906 188.175781 C 156.628906 187.796875 158.066406 186.589844 159.820312 185.5 L 163.015625 183.511719 L 158.183594 183.082031 C 151.917969 182.523438 151.234375 181.691406 155.625 179.964844 C 157.582031 179.195312 159.183594 178.292969 159.183594 177.953125 C 159.183594 177.617188 157.691406 177.101562 155.867188 176.808594 C 152.476562 176.265625 150.503906 173.972656 152.808594 173.257812 L 155.347656 172.464844 C 156.117188 172.222656 156.628906 171.03125 156.628906 169.488281 C 156.628906 167.015625 156.757812 166.925781 159.734375 167.308594 C 161.441406 167.523438 165.394531 169.25 168.515625 171.136719 C 174.070312 174.492188 178.910156 175.566406 180.0625 173.703125 C 180.355469 173.230469 179.988281 171.625 179.246094 170.136719 C 177.460938 166.558594 178.515625 165.753906 183.320312 167.039062 C 188.394531 168.398438 189.980469 167.277344 187.605469 164.015625 C 186.230469 162.125 185.457031 161.859375 181.816406 162.023438 C 177.976562 162.195312 177.570312 162.03125 177.09375 160.089844 C 176.589844 158.023438 175.308594 157.328125 170.046875 156.265625 C 167.230469 155.695312 167.128906 154.765625 169.5 151.429688 C 171.242188 148.984375 171.25 148.871094 169.714844 147.746094 C 168.183594 146.628906 168.195312 146.519531 170.046875 144.546875 C 172.398438 142.042969 172.519531 140.984375 170.316406 142.160156 C 167.765625 143.527344 165.964844 143.273438 166.59375 141.636719 C 167.027344 140.5 166.738281 140.332031 165.074219 140.746094 C 163.570312 141.121094 162.480469 140.699219 161.015625 139.171875 C 159.914062 138.027344 158.699219 137.277344 158.320312 137.511719 C 156.890625 138.398438 154.789062 136.839844 155.214844 135.210938 C 155.511719 134.066406 155.023438 133.292969 153.578125 132.636719 C 151.601562 131.734375 150.632812 128.5625 152.335938 128.5625 C 152.785156 128.5625 155.183594 129.304688 157.660156 130.214844 C 160.136719 131.125 163.699219 132.121094 165.574219 132.429688 C 168.902344 132.976562 168.820312 132.882812 162.164062 128.386719 L 155.351562 123.789062 L 155.308594 119.777344 L 155.269531 115.769531 L 158.292969 116.28125 C 159.953125 116.5625 164.1875 118.160156 167.703125 119.832031 C 174.6875 123.15625 178.824219 123.589844 181.390625 121.269531 C 183.160156 119.667969 183.632812 116.632812 182.117188 116.632812 C 181.609375 116.632812 181.351562 116.152344 181.550781 115.570312 C 181.746094 114.984375 180.820312 114.042969 179.492188 113.480469 C 176.082031 112.035156 176.492188 110.667969 180.328125 110.667969 C 182.738281 110.667969 184.0625 110.117188 185.433594 108.539062 C 186.453125 107.367188 187.894531 106.410156 188.640625 106.410156 C 189.386719 106.410156 189.832031 105.929688 189.632812 105.34375 C 189.40625 104.6875 188.109375 104.382812 186.238281 104.550781 C 184.570312 104.699219 182.945312 104.390625 182.621094 103.871094 C 182.242188 103.257812 180.699219 103.121094 178.277344 103.484375 C 174.722656 104.015625 173.175781 103.082031 175.371094 101.722656 C 177.011719 100.710938 176.277344 99.503906 174.574219 100.417969 C 172.011719 101.789062 170.933594 101.496094 171.535156 99.59375 C 171.890625 98.480469 171.691406 97.890625 170.957031 97.890625 C 169.390625 97.890625 164.945312 92.152344 166.003906 91.496094 C 166.472656 91.207031 168.484375 91.210938 170.472656 91.503906 C 172.464844 91.796875 175.816406 92.175781 177.925781 92.351562 C 180.035156 92.527344 182.917969 92.914062 184.328125 93.214844 C 187.65625 93.925781 192.222656 90.773438 190.632812 88.859375 C 190.089844 88.203125 189.117188 87.667969 188.472656 87.667969 C 186.878906 87.667969 186.996094 86.820312 188.789062 85.375 C 190.164062 84.261719 190.132812 84.207031 188.363281 84.640625 C 187.308594 84.898438 185.648438 85.339844 184.667969 85.617188 C 183.121094 86.058594 183.007812 85.910156 183.789062 84.453125 C 184.894531 82.382812 184.277344 81.703125 181.296875 81.703125 C 180.027344 81.703125 178.53125 81.152344 177.96875 80.476562 C 177.410156 79.800781 176.117188 79.113281 175.097656 78.945312 C 173.535156 78.6875 173.761719 78.410156 176.539062 77.1875 C 178.355469 76.390625 180.917969 75.738281 182.234375 75.738281 C 183.941406 75.738281 184.796875 75.210938 185.214844 73.886719 C 185.878906 71.792969 183.679688 69.582031 181.683594 70.347656 C 181.011719 70.609375 180.253906 70.121094 179.933594 69.226562 C 179.625 68.355469 178.796875 66.976562 178.089844 66.15625 C 177.386719 65.335938 177.15625 64.65625 177.582031 64.644531 C 178.007812 64.632812 179.304688 63.894531 180.464844 63.003906 C 182.230469 61.648438 182.3125 61.40625 180.984375 61.53125 C 180.105469 61.613281 179.226562 61.222656 179.027344 60.664062 C 178.609375 59.480469 185.058594 57.507812 187.375 58.117188 C 188.230469 58.339844 189.570312 57.78125 190.410156 56.851562 C 191.695312 55.433594 191.734375 55.074219 190.6875 54.429688 C 189.769531 53.863281 189.429688 51.570312 189.339844 45.324219 C 189.136719 31.601562 189.265625 32.289062 186.871094 32.289062 C 184.28125 32.289062 184.015625 30.183594 186.445312 28.882812 C 187.546875 28.292969 188.152344 27.097656 188.152344 25.515625 C 188.152344 19.195312 191.082031 18.417969 191.890625 24.519531 C 192.390625 28.28125 192.683594 28.722656 194.980469 29.183594 C 197.496094 29.6875 198.394531 31.648438 196.617188 32.75 C 195.09375 33.6875 194.128906 37.261719 194.667969 39.957031 C 195.09375 42.082031 195.589844 42.511719 197.609375 42.511719 C 200.199219 42.511719 203.269531 45.90625 202.21875 47.605469 C 201.914062 48.101562 202.101562 49.84375 202.640625 51.476562 C 203.339844 53.601562 204.265625 54.59375 205.894531 54.980469 C 207.148438 55.277344 208.746094 56.007812 209.449219 56.605469 C 210.152344 57.203125 212.3125 58.113281 214.25 58.628906 C 218.5625 59.777344 220.519531 61.6875 218.042969 62.335938 C 216.867188 62.644531 216.507812 63.277344 216.820312 64.472656 C 217.5 67.074219 215.53125 67.628906 212.800781 65.609375 C 211.0625 64.324219 210.492188 64.171875 210.84375 65.082031 C 211.15625 65.898438 210.835938 66.367188 209.964844 66.367188 C 208.542969 66.367188 208.355469 67.875 209.332031 71.371094 C 209.726562 72.769531 211.078125 73.824219 213.722656 74.796875 C 217.34375 76.132812 217.554688 76.394531 217.804688 79.804688 C 218.085938 83.671875 217.621094 84.058594 215.039062 82.101562 C 212.960938 80.53125 210.300781 80.339844 211.835938 81.875 C 213.421875 83.460938 213.054688 84.257812 210.726562 84.257812 C 208.203125 84.257812 208.109375 84.929688 210.089844 88.832031 L 211.578125 91.769531 L 220.578125 91.300781 C 226.613281 90.988281 230.625 91.183594 232.761719 91.886719 C 235.964844 92.945312 236.652344 95.125 233.636719 94.660156 C 232.75 94.523438 231.453125 94.332031 230.75 94.234375 C 229.992188 94.128906 229.355469 94.863281 229.191406 96.039062 C 228.980469 97.523438 228.550781 97.867188 227.484375 97.410156 C 226.703125 97.074219 225.039062 96.621094 223.789062 96.40625 C 221.914062 96.082031 221.46875 96.363281 221.234375 98.015625 C 220.964844 99.914062 220.65625 100.007812 215.414062 99.785156 C 209.164062 99.523438 207.886719 100.050781 207.554688 103.039062 C 207.320312 105.121094 207.363281 105.132812 216.691406 105.644531 C 221.84375 105.925781 227.210938 106.652344 228.617188 107.257812 C 230.023438 107.867188 233.367188 108.785156 236.046875 109.304688 C 242.316406 110.511719 242.054688 112.023438 235.632812 111.699219 C 231.835938 111.507812 230.609375 111.75 230.21875 112.765625 C 229.625 114.304688 226.40625 114.507812 224.992188 113.089844 C 224.246094 112.34375 223.6875 112.367188 222.695312 113.191406 C 221.976562 113.789062 220.457031 114.101562 219.316406 113.882812 C 217.816406 113.59375 217.136719 113.917969 216.835938 115.058594 C 216.601562 115.957031 215.660156 116.632812 214.640625 116.632812 C 213.425781 116.632812 212.859375 117.175781 212.859375 118.335938 C 212.859375 119.285156 212.289062 120.042969 211.578125 120.042969 C 209.601562 120.042969 210.070312 122.339844 212.160156 122.882812 C 213.308594 123.183594 215.984375 122.410156 219.15625 120.863281 C 222.632812 119.167969 224.574219 118.636719 225.160156 119.222656 C 226.339844 120.402344 224.863281 122.605469 221.726562 124.335938 C 220.363281 125.089844 219.125 126.539062 218.976562 127.550781 C 218.675781 129.597656 215.804688 131.96875 213.625 131.96875 C 211.480469 131.96875 210.390625 133.816406 211.230469 136.035156 C 212.25 138.726562 214.328125 139.289062 217.128906 137.632812 C 220.234375 135.800781 221.785156 135.859375 226.183594 137.988281 C 228.183594 138.957031 232.042969 139.941406 234.757812 140.171875 C 237.472656 140.40625 240.554688 140.769531 241.609375 140.984375 C 243.875 141.441406 244.210938 143.894531 242.011719 143.894531 C 241.179688 143.894531 239.726562 144.4375 238.777344 145.101562 C 237.710938 145.847656 234.226562 146.414062 229.605469 146.59375 C 223.003906 146.84375 222.195312 147.046875 222.535156 148.367188 C 222.835938 149.535156 222.382812 149.859375 220.445312 149.859375 C 218.441406 149.859375 217.972656 150.226562 217.980469 151.777344 C 217.988281 152.832031 218.277344 154.109375 218.621094 154.617188 C 218.964844 155.128906 223.082031 156.011719 227.765625 156.582031 C 248.054688 159.050781 249.738281 159.445312 249.3125 161.660156 C 248.90625 163.769531 245.1875 165.273438 241.726562 164.722656 C 238.910156 164.273438 238.417969 164.519531 235.953125 167.632812 C 233.925781 170.191406 233.53125 171.207031 234.347656 171.734375 C 234.945312 172.121094 240.609375 172.4375 246.933594 172.4375 C 256.363281 172.4375 258.4375 172.65625 258.4375 173.660156 C 258.4375 174.332031 257.164062 175.214844 255.605469 175.617188 C 253.789062 176.089844 252.261719 177.269531 251.34375 178.914062 C 250.484375 180.457031 248.988281 181.664062 247.574219 181.960938 C 246.0625 182.273438 245.230469 182.992188 245.230469 183.988281 C 245.230469 186.085938 242.746094 186.710938 238.324219 185.714844 C 233.835938 184.707031 233.253906 185.101562 235.78125 187.453125 C 237.164062 188.742188 237.445312 189.507812 236.785156 190.171875 C 236.121094 190.832031 234.773438 190.566406 232.003906 189.21875 C 227.316406 186.941406 227.394531 186.945312 227.945312 189.050781 C 228.265625 190.273438 227.972656 190.753906 226.90625 190.753906 C 225.691406 190.753906 225.519531 191.257812 225.953125 193.523438 C 226.644531 197.152344 232.074219 202.015625 234.894531 201.527344 C 237.445312 201.082031 245.917969 203.019531 247.226562 204.347656 C 248.605469 205.75 245.417969 208.023438 242.945312 207.402344 C 241.410156 207.019531 241.039062 207.34375 240.816406 209.28125 C 240.539062 211.695312 239.539062 212.007812 236.285156 210.710938 C 234.785156 210.109375 234.71875 210.195312 235.722656 211.429688 C 236.96875 212.964844 236.40625 214.609375 234.636719 214.609375 C 234.019531 214.609375 233.042969 214.039062 232.464844 213.347656 C 231.558594 212.25 231.234375 212.316406 229.984375 213.859375 C 228.621094 215.546875 228.394531 215.566406 225.390625 214.3125 C 222.582031 213.136719 220.875 213.671875 223.082031 215.035156 C 223.550781 215.324219 223.933594 216.144531 223.933594 216.855469 C 223.933594 217.832031 223.152344 218.082031 220.738281 217.871094 C 218.023438 217.632812 217.503906 217.863281 217.285156 219.394531 C 217.117188 220.585938 217.578125 221.34375 218.632812 221.621094 C 220.675781 222.15625 235.679688 217.878906 238.699219 215.902344 C 240.542969 214.695312 241.601562 214.5625 244.171875 215.21875 C 247.367188 216.035156 257.160156 222.730469 257.160156 224.101562 C 257.160156 225.414062 252.878906 224.871094 248.558594 223.011719 C 243.878906 221 242.148438 221.332031 245.582031 223.582031 C 250.058594 226.515625 246.703125 228.796875 241.441406 226.402344 C 239.664062 225.589844 238.996094 225.667969 237.714844 226.828125 C 235.792969 228.5625 234.644531 228.597656 232.195312 226.996094 C 230.429688 225.839844 230.019531 225.96875 226.476562 228.792969 C 222.789062 231.730469 222.507812 232.269531 223.191406 235.054688 C 223.519531 236.378906 222.464844 236.472656 219.035156 235.4375 C 217.511719 234.976562 217.117188 235.191406 217.117188 236.488281 C 217.117188 237.386719 216.691406 238.550781 216.167969 239.070312 C 214.640625 240.597656 215.875 241.511719 221.015625 242.664062 C 225.554688 243.679688 225.992188 243.632812 228.378906 241.867188 C 229.804688 240.816406 232.464844 239.886719 234.453125 239.753906 C 236.398438 239.621094 239.523438 239.246094 241.398438 238.914062 C 243.964844 238.464844 245.820312 238.753906 248.921875 240.09375 C 254.695312 242.585938 253.796875 244.0625 246.691406 243.773438 C 241.78125 243.574219 240.929688 243.773438 239.804688 245.378906 C 238.949219 246.597656 237.949219 247.058594 236.796875 246.757812 C 235.824219 246.503906 234.617188 246.855469 234.027344 247.5625 C 233.316406 248.421875 232.128906 248.65625 230.261719 248.304688 C 228.265625 247.929688 227.40625 248.140625 227.039062 249.09375 C 226.765625 249.804688 226 250.390625 225.335938 250.390625 C 224.675781 250.390625 223.929688 251.15625 223.6875 252.09375 C 223.316406 253.503906 223.660156 253.796875 225.683594 253.796875 C 227.03125 253.796875 230.074219 254.566406 232.453125 255.503906 C 237.800781 257.609375 239.390625 257.621094 245.730469 255.59375 C 248.5 254.710938 252.207031 253.734375 253.964844 253.425781 C 256.746094 252.941406 257.160156 253.082031 257.160156 254.511719 C 257.160156 256.457031 253.765625 258.898438 251.011719 258.9375 C 249.117188 258.964844 249.109375 258.996094 250.71875 260.214844 C 251.628906 260.902344 254.175781 261.464844 256.378906 261.464844 C 259.332031 261.464844 260.527344 261.839844 260.929688 262.886719 C 261.640625 264.742188 260.253906 266.054688 257.355469 266.265625 C 254.089844 266.507812 253.902344 266.667969 256.144531 267.300781 C 258.351562 267.921875 258.964844 269.472656 257.097656 269.71875 C 249.40625 270.722656 247.945312 271.152344 245.757812 273.0625 L 243.300781 275.210938 L 245.972656 277.960938 C 249.359375 281.457031 249.335938 282.578125 245.871094 282.960938 L 243.101562 283.265625 L 245.578125 283.992188 C 247.210938 284.472656 248.515625 284.378906 249.410156 283.71875 C 250.15625 283.167969 251.90625 282.054688 253.292969 281.25 C 254.679688 280.441406 257.792969 277.769531 260.210938 275.308594 C 262.628906 272.851562 265.242188 270.835938 266.023438 270.835938 C 268.089844 270.835938 268.589844 273.023438 267.03125 275.246094 C 265.242188 277.800781 265.324219 278.503906 267.410156 278.503906 C 270.050781 278.503906 270.304688 280.621094 268.183594 285.003906 C 266.890625 287.667969 265.453125 289.285156 263.816406 289.902344 C 261.515625 290.769531 261.40625 291.03125 261.917969 294.453125 C 262.484375 298.238281 262.589844 298.101562 258.09375 299.484375 C 257.148438 299.773438 257.210938 300.082031 258.410156 300.957031 C 259.410156 301.6875 259.738281 302.644531 259.378906 303.777344 C 258.84375 305.472656 258.136719 305.929688 251.835938 308.703125 C 249.816406 309.589844 248.640625 310.683594 248.640625 311.667969 C 248.640625 314.035156 246.65625 315.210938 243.664062 314.613281 C 241.542969 314.1875 240.878906 314.402344 240.410156 315.671875 C 239.433594 318.3125 238.277344 318.625 231.488281 318.066406 C 227.15625 317.710938 224.792969 317.84375 224.410156 318.464844 C 224.09375 318.980469 222.917969 319.398438 221.804688 319.398438 C 219.5625 319.398438 219.292969 319.683594 218.539062 322.855469 C 218.035156 324.972656 218.191406 325.0625 224.371094 326.160156 C 230.648438 327.277344 230.738281 327.265625 232.347656 325.28125 C 233.855469 323.417969 234.136719 323.359375 236.257812 324.496094 C 238.273438 325.574219 239.164062 325.542969 243.804688 324.234375 C 254.011719 321.359375 255.066406 321.144531 259.074219 321.121094 C 263.597656 321.101562 264.21875 322.160156 261.425781 325.15625 C 260.414062 326.242188 260.078125 327.191406 260.589844 327.507812 C 262.410156 328.632812 260.421875 329.394531 256.746094 328.980469 C 254.199219 328.695312 252.898438 328.875 252.898438 329.511719 C 252.898438 330.039062 253.6875 330.472656 254.652344 330.472656 C 255.617188 330.472656 256.171875 330.855469 255.882812 331.324219 C 255.59375 331.792969 254.472656 332.175781 253.390625 332.175781 C 252.308594 332.175781 250.46875 332.933594 249.296875 333.855469 C 248.125 334.773438 246.25 335.488281 245.132812 335.4375 C 240.769531 335.238281 239.453125 335.636719 239.023438 337.277344 C 238.78125 338.210938 237.585938 339.351562 236.371094 339.8125 C 235.152344 340.277344 234.15625 341.238281 234.15625 341.953125 C 234.15625 343.410156 231.957031 343.589844 227.339844 342.519531 C 225.703125 342.140625 223.878906 341.988281 223.292969 342.1875 C 221.425781 342.8125 222.148438 343.953125 224.785156 344.53125 C 228.144531 345.269531 228.1875 347.511719 224.84375 347.511719 C 223.140625 347.511719 222.183594 348.027344 221.832031 349.128906 C 221.101562 351.425781 216.484375 352.050781 208.835938 350.890625 C 203.886719 350.140625 201.3125 349.207031 197.847656 346.90625 C 195.355469 345.253906 192.757812 344.117188 192.074219 344.378906 C 191.339844 344.660156 190.605469 346.546875 190.289062 348.953125 C 189.992188 351.207031 189.671875 353.625 189.582031 354.328125 C 189.34375 356.148438 181.992188 356.570312 180.558594 354.84375 Z M 198.160156 326.53125 C 200.25 325.214844 200.589844 324.074219 199.164062 323.191406 C 198.660156 322.882812 197.402344 323.421875 196.371094 324.390625 C 195.125 325.558594 193.855469 325.988281 192.601562 325.65625 C 191.25 325.304688 190.707031 325.539062 190.707031 326.46875 C 190.707031 328.976562 194.238281 329.003906 198.160156 326.53125 Z M 206.894531 322.867188 C 206.894531 321.839844 202.507812 318.386719 201.933594 318.964844 C 201.402344 319.492188 205.183594 323.65625 206.1875 323.65625 C 206.578125 323.65625 206.894531 323.300781 206.894531 322.867188 Z M 214.183594 313.832031 C 213.273438 313.144531 211.550781 312.59375 210.351562 312.613281 L 208.171875 312.640625 L 210.300781 313.859375 C 211.472656 314.53125 213.195312 315.078125 214.132812 315.082031 C 215.816406 315.082031 215.816406 315.066406 214.183594 313.832031 Z M 177.925781 304.082031 C 177.925781 302.207031 173.425781 300.328125 169.515625 300.566406 C 162.933594 300.964844 163.515625 302.550781 170.359375 302.859375 C 172.75 302.964844 175.121094 303.472656 175.632812 303.984375 C 176.789062 305.140625 177.925781 305.1875 177.925781 304.082031 Z M 213.164062 284.042969 C 212.894531 283.339844 212.332031 282.765625 211.914062 282.765625 C 211.496094 282.765625 211.152344 283.339844 211.152344 284.042969 C 211.152344 284.746094 211.714844 285.320312 212.402344 285.320312 C 213.164062 285.320312 213.464844 284.820312 213.164062 284.042969 Z M 219.285156 282.5 C 219.332031 279.808594 217.511719 277.769531 216.21875 279.0625 C 215.761719 279.515625 215.640625 281.128906 215.941406 282.644531 C 216.644531 286.152344 219.226562 286.039062 219.285156 282.5 Z M 237.546875 282.449219 L 241.363281 281.308594 L 238.726562 279.941406 C 236.199219 278.636719 236.007812 278.660156 234.261719 280.519531 C 233.257812 281.589844 232.695312 282.722656 233.011719 283.039062 C 233.328125 283.355469 233.617188 283.609375 233.65625 283.601562 C 233.695312 283.597656 235.445312 283.078125 237.546875 282.449219 Z M 174.886719 261.367188 C 174.628906 260.953125 173.867188 260.613281 173.191406 260.613281 C 172.515625 260.613281 171.960938 260.230469 171.960938 259.761719 C 171.960938 258.644531 167.109375 258.652344 166.417969 259.773438 C 165.632812 261.042969 172.972656 264.019531 174.296875 262.964844 C 174.875 262.503906 175.140625 261.785156 174.882812 261.367188 Z M 222.179688 171.664062 C 225.488281 171.308594 225.148438 169.785156 221.429688 168.296875 C 216.128906 166.175781 211.554688 168.644531 214.773438 171.894531 C 215.40625 172.53125 216.703125 172.75 217.96875 172.429688 C 219.136719 172.132812 221.035156 171.789062 222.179688 171.664062 Z M 222.179688 171.664062 " fill-opacity="1" fill-rule="nonzero"/></svg>