<svg version="1.2" xmlns="http://www.w3.org/2000/svg" viewBox="0 0 339 119" width="339" height="119">
	<title>Stillwater Web Dev</title>
	<defs>
		<clipPath clipPathUnits="userSpaceOnUse" id="cp1">
			<path d="m0.03 4h55v111.47h-55z"/>
		</clipPath>
	</defs>
	<style>
		.s0 { fill: #ffffff } 
	</style>
	<g id="Clip-Path" clip-path="url(#cp1)">
		<g>
			<path class="s0" d="m25.1 114.6c-0.2-0.2-0.3-0.9-0.3-1.6 0.1-1 0-1.2-0.5-1.3-0.4 0-1.1-0.3-1.5-0.5-0.7-0.5-0.8-0.5-1.5 0-0.8 0.5-1.6 0.3-1.6-0.3 0-0.2-0.4-0.4-1.2-0.4-1-0.1-1.2-0.2-1.2-0.8 0.1-0.9-0.8-0.8-2.8 0.2-1.8 0.9-3.3 1.1-3.8 0.5-0.2-0.3-0.1-0.5 0.6-1 0.4-0.3 0.8-0.8 0.8-1.2 0-0.3 0.3-0.6 0.7-0.8 0.8-0.3 1.4-1 1-1.2-0.4-0.3-3 0-4.2 0.5-0.5 0.2-1.2 0.4-1.5 0.4-0.8 0-1-0.8-0.3-1.3 0.3-0.2 0.5-0.5 0.4-0.7-0.1-0.2-0.1-0.7-0.1-1.1-0.1-0.6-0.3-0.7-1.5-1.1-1.5-0.5-2.1-1.2-1.6-1.7 0.2-0.2 0.5-0.2 0.9 0 0.5 0.3 1.3 0.3 2.7 0.2 1.4-0.2 2.3-0.1 2.7 0.1 0.3 0.2 0.9 0.3 1.3 0.2l0.7-0.1-0.7-0.8c-0.6-0.7-0.9-0.8-3-1-3.5-0.4-4.1-0.6-4.2-1.3 0-0.4 0-0.7 0.2-0.7 0.1 0 0.5-0.1 0.8-0.4 0.5-0.4 0.5-0.4-0.1-0.8-0.3-0.2-0.9-0.4-1.3-0.4-0.4 0-0.9-0.2-1.1-0.5-0.2-0.3-0.2-0.4 0.6-0.7 1.1-0.4 1.1-0.8 0-1l-0.9-0.2 1.1-0.7 1.1-0.7-1.4 0.2c-1.2 0.2-1.8-0.1-0.9-0.5 0.8-0.3 0.5-0.6-1.1-1.1-1.7-0.6-2.4-1.2-1.9-1.6q0.3-0.3 1.7 0c0.9 0.2 1.8 0.2 2.6 0 1.2-0.2 1.3-0.2 2.1 0.5 0.5 0.5 1.4 1 2 1.2 0.8 0.2 1.6 0.8 2.5 1.7 1.3 1.4 2.6 2.1 4.1 2.3 1.5 0.1 1.4-0.4-0.2-1-1.5-0.5-1.9-1.2-1.1-1.5 0.7-0.3 0.5-0.6-0.7-1-0.8-0.2-1.1-0.5-1.1-0.8 0-0.3-0.2-0.6-0.4-0.6-0.3 0-0.7-0.2-1-0.5-0.3-0.3-0.8-0.6-1-0.6-0.2 0-0.6-0.2-1-0.5-0.4-0.3-1.2-0.7-1.8-0.9-2.7-0.8-3.1-2-0.8-2 1.2 0 1.3 0 1.1-0.6-0.4-1.6 0.7-2.6 1.3-1.2 0.2 0.4 0.7 0.9 1.3 1.2 0.9 0.4 1 0.4 2-0.1 2.1-0.9 2.5-2.1 0.8-2.1-0.8 0-1.1-0.3-2-1.4-1-1.4-1.1-1.7-0.1-1.7 0.5 0 0.6-0.1 0.2-0.8-0.4-0.7-0.1-1.7 0.4-1.7 0.2 0 0.6 0.3 0.8 0.7 0.2 0.5 0.8 1 1.9 1.4 0.9 0.3 2 0.9 2.6 1.4 1.1 0.9 2.4 0.9 2.2-0.1 0-0.4 0.1-0.6 0.4-0.6 0.3 0 0.7-0.1 1-0.3 0.3-0.2 0.3-0.3-0.1-0.8-0.3-0.2-0.5-0.6-0.5-0.7 0-0.2-0.3-0.6-0.7-1-0.6-0.5-0.8-0.6-1.4-0.4-0.9 0.5-1.3 0.1-1.1-0.8 0.2-0.7 0.1-0.8-0.4-0.8-0.4 0-0.7-0.2-0.8-0.5-0.1-0.4-0.4-0.6-0.9-0.6-0.7 0-0.8-0.1-0.7-0.5 0.2-0.8-0.4-1-0.9-0.5-0.6 0.5-1 0.3-1-0.5 0-0.5 0-0.5-0.3-0.2-0.5 0.4-1.4 0.4-1.4-0.1 0-0.2 0.2-0.6 0.5-0.9 0.5-0.8 0.5-1.1-0.2-1.4-0.4-0.1-0.7-0.5-0.8-0.8 0-0.3-0.3-0.8-0.5-1.1-0.4-0.4-0.4-0.6-0.1-1.7 0.3-1.2 0.3-1.4-0.2-2-0.7-0.7-1.1-2-0.6-2.2 0.5-0.4 3.2 2 4.5 3.9 0.4 0.5 1.2 1.5 1.9 2.1 0.6 0.7 1.2 1.4 1.3 1.7 0.1 0.3 0.7 0.7 1.3 0.9 1 0.4 1.2 0.4 2.7 0 0.9-0.3 2.4-0.7 3.4-0.9 1.8-0.4 2.2-0.7 1.2-1-0.7-0.2-0.6-0.8 0.2-0.9 0.3-0.1 0.9-0.3 1.4-0.5 1.2-0.6 1.3-1.6 0.2-1.6-0.4 0-0.8-0.1-0.8-0.3-0.2-0.4-0.4-0.4-1.4 0-1 0.4-1.3 0.4-1.6 0.1-0.3-0.3-0.3-0.5 0.3-0.9l0.7-0.5h-1c-1.2-0.1-2.1-0.6-1.9-1.2 0.1-0.3 0.9-0.6 1.8-0.8 1.6-0.3 3.2-1.3 3.2-1.9 0-0.5-0.2-0.5-1.1 0-0.8 0.5-2.4 0.6-2.7 0.2-0.1-0.2 0.2-0.4 0.5-0.6 1.1-0.4 1.3-0.8 0.2-0.6-0.7 0.1-0.9 0-1-0.5-0.2-0.7-0.3-0.7-1.5-0.1-1.1 0.6-2.8 1-2.8 0.7 0-0.2 0.5-0.6 1-0.9l1.1-0.7-1.6-0.1c-2.1-0.2-2.3-0.5-0.9-1.1 0.7-0.2 1.2-0.5 1.2-0.6 0-0.1-0.5-0.3-1.1-0.4-1.1-0.2-1.7-0.9-1-1.2l0.9-0.2c0.2-0.1 0.4-0.5 0.4-1 0-0.8 0-0.9 1-0.7 0.6 0 1.9 0.6 2.9 1.2 1.8 1.1 3.4 1.5 3.8 0.9 0.1-0.2 0-0.7-0.2-1.2-0.6-1.2-0.3-1.5 1.3-1 1.7 0.4 2.2 0.1 1.4-1-0.4-0.7-0.7-0.7-1.9-0.7-1.3 0.1-1.4 0-1.6-0.6-0.1-0.7-0.5-0.9-2.3-1.3-0.9-0.2-0.9-0.5-0.2-1.6 0.6-0.8 0.6-0.8 0.1-1.2-0.5-0.4-0.5-0.4 0.1-1.1 0.8-0.8 0.8-1.1 0.1-0.7-0.8 0.4-1.4 0.3-1.2-0.2 0.1-0.4 0-0.4-0.5-0.3-0.5 0.1-0.9 0-1.4-0.5-0.3-0.4-0.7-0.7-0.9-0.6-0.4 0.3-1.1-0.2-1-0.7 0.1-0.4 0-0.7-0.5-0.9-0.7-0.3-1-1.3-0.4-1.3 0.1 0 0.9 0.2 1.7 0.5 0.8 0.3 2 0.6 2.6 0.7 1.1 0.2 1.1 0.2-1.1-1.3l-2.2-1.5-0.1-1.3v-1.4l1 0.2c0.6 0.1 2 0.6 3.1 1.2 2.3 1.1 3.7 1.2 4.6 0.4 0.5-0.5 0.7-1.5 0.2-1.5-0.2 0-0.3-0.1-0.2-0.3 0.1-0.2-0.2-0.5-0.7-0.7-1.1-0.5-1-1 0.3-1 0.8 0 1.2-0.1 1.7-0.7 0.3-0.3 0.8-0.7 1.1-0.7 0.2 0 0.4-0.1 0.3-0.3-0.1-0.2-0.5-0.3-1.1-0.3-0.6 0.1-1.1 0-1.2-0.2-0.2-0.2-0.7-0.2-1.5-0.1-1.1 0.2-1.7-0.2-0.9-0.6 0.5-0.3 0.3-0.7-0.3-0.4q-1.3 0.6-1-0.3 0.2-0.6-0.2-0.6c-0.5 0-2-1.9-1.6-2.1 0.1-0.1 0.8-0.1 1.5 0 0.6 0.1 1.7 0.2 2.4 0.3 0.7 0.1 1.7 0.2 2.1 0.3 1.1 0.2 2.6-0.8 2.1-1.5-0.2-0.2-0.5-0.4-0.7-0.4-0.5 0-0.5-0.2 0.1-0.7 0.5-0.4 0.4-0.4-0.1-0.3-0.4 0.1-0.9 0.3-1.3 0.4-0.5 0.1-0.5 0.1-0.2-0.4 0.3-0.7 0.1-0.9-0.9-0.9-0.4 0-0.9-0.2-1.1-0.4-0.2-0.2-0.6-0.5-0.9-0.5-0.5-0.1-0.5-0.2 0.5-0.6 0.6-0.3 1.4-0.5 1.8-0.5 0.6 0 0.9-0.2 1-0.6 0.2-0.7-0.5-1.4-1.1-1.2-0.3 0.1-0.5 0-0.6-0.3-0.1-0.3-0.4-0.8-0.6-1.1-0.3-0.2-0.3-0.5-0.2-0.5 0.1 0 0.6-0.2 1-0.5 0.5-0.4 0.6-0.5 0.1-0.5-0.3 0-0.6-0.1-0.6-0.3-0.2-0.4 2-1 2.7-0.8 0.3 0.1 0.8-0.1 1-0.4 0.5-0.5 0.5-0.6 0.1-0.8-0.3-0.2-0.4-1-0.4-3-0.1-4.6 0-4.3-0.8-4.3-0.9 0-1-0.7-0.2-1.2 0.4-0.2 0.6-0.6 0.6-1.1 0-2.1 1-2.3 1.2-0.3 0.2 1.2 0.3 1.4 1 1.5 0.9 0.2 1.2 0.8 0.6 1.2-0.5 0.3-0.8 1.5-0.7 2.4 0.2 0.7 0.4 0.8 1 0.8 0.9 0 1.9 1.2 1.5 1.7-0.1 0.2 0 0.8 0.2 1.3 0.2 0.7 0.5 1 1.1 1.1 0.4 0.1 0.9 0.4 1.1 0.6 0.3 0.2 1 0.5 1.6 0.7 1.4 0.3 2.1 1 1.3 1.2-0.4 0.1-0.5 0.3-0.4 0.7 0.2 0.8-0.5 1-1.4 0.4-0.5-0.5-0.7-0.5-0.6-0.2q0.1 0.4-0.3 0.4c-0.5 0-0.5 0.5-0.2 1.7 0.1 0.4 0.6 0.8 1.4 1.1 1.2 0.4 1.3 0.5 1.4 1.7 0.1 1.2-0.1 1.4-0.9 0.7-0.7-0.5-1.6-0.6-1.1-0.1q0.8 0.8-0.3 0.8c-0.9 0-0.9 0.2-0.3 1.5l0.5 1 3-0.2q3-0.1 4 0.2c1.1 0.4 1.3 1.1 0.3 1-0.3-0.1-0.7-0.1-0.9-0.2-0.3 0-0.5 0.2-0.5 0.6-0.1 0.5-0.3 0.6-0.6 0.5-0.3-0.1-0.8-0.3-1.2-0.4-0.7-0.1-0.8 0-0.9 0.6-0.1 0.6-0.2 0.6-1.9 0.6-2.1-0.1-2.5 0-2.6 1-0.1 0.7-0.1 0.7 3 0.9 1.7 0.1 3.5 0.3 4 0.5 0.4 0.2 1.5 0.5 2.4 0.7 2.1 0.4 2 0.9-0.1 0.8-1.3-0.1-1.7 0-1.8 0.3-0.2 0.6-1.3 0.6-1.7 0.2-0.3-0.3-0.5-0.3-0.8 0-0.2 0.2-0.7 0.3-1.1 0.2-0.5-0.1-0.7 0-0.8 0.4-0.1 0.3-0.4 0.5-0.8 0.5q-0.6 0-0.5 0.6c0 0.3-0.2 0.5-0.5 0.5-0.6 0-0.5 0.8 0.2 1 0.4 0.1 1.3-0.2 2.3-0.7 1.2-0.5 1.8-0.7 2-0.5 0.4 0.4-0.1 1.1-1.1 1.7-0.5 0.2-0.9 0.7-0.9 1-0.1 0.7-1.1 1.5-1.8 1.5-0.7 0-1.1 0.6-0.8 1.3 0.4 0.9 1 1.1 2 0.6 1-0.6 1.5-0.6 3 0.1 0.6 0.3 1.9 0.6 2.8 0.7 0.9 0.1 1.9 0.2 2.3 0.3 0.7 0.1 0.8 0.9 0.1 0.9-0.3 0-0.8 0.2-1.1 0.4-0.3 0.3-1.5 0.5-3 0.5-2.2 0.1-2.5 0.2-2.3 0.6 0.1 0.4-0.1 0.5-0.7 0.5-0.7 0-0.9 0.1-0.9 0.6 0.1 0.4 0.1 0.8 0.3 1 0.1 0.1 1.4 0.4 3 0.6 6.7 0.8 7.2 1 7.1 1.7-0.1 0.7-1.4 1.2-2.5 1-0.9-0.1-1.1-0.1-1.9 1-0.7 0.8-0.8 1.1-0.5 1.3 0.2 0.2 2 0.3 4.1 0.3 3.1 0 3.8 0 3.8 0.4 0 0.2-0.4 0.5-0.9 0.6-0.6 0.2-1.1 0.6-1.4 1.1-0.3 0.5-0.8 0.9-1.3 1-0.5 0.1-0.7 0.3-0.7 0.7 0 0.7-0.9 0.9-2.3 0.5-1.5-0.3-1.7-0.2-0.9 0.6 0.5 0.4 0.6 0.7 0.4 0.9-0.3 0.2-0.7 0.1-1.6-0.3-1.6-0.8-1.5-0.7-1.4-0.1 0.1 0.5 0.1 0.6-0.3 0.6-0.4 0-0.5 0.2-0.3 0.9 0.2 1.2 2 2.8 2.9 2.7 0.9-0.2 3.7 0.5 4.1 0.9 0.5 0.5-0.6 1.2-1.4 1-0.5-0.1-0.6 0-0.7 0.6-0.1 0.8-0.4 0.9-1.5 0.5-0.5-0.2-0.5-0.2-0.2 0.2 0.4 0.5 0.2 1.1-0.3 1.1-0.2 0-0.6-0.2-0.8-0.4-0.3-0.4-0.4-0.4-0.8 0.1-0.4 0.6-0.5 0.6-1.5 0.2-0.9-0.4-1.5-0.2-0.8 0.2 0.2 0.1 0.3 0.4 0.3 0.6 0 0.4-0.2 0.4-1 0.4-0.9-0.1-1.1 0-1.2 0.5q-0.1 0.6 0.5 0.7c0.6 0.2 5.6-1.2 6.6-1.9 0.6-0.4 1-0.4 1.8-0.2 1.1 0.3 4.3 2.5 4.3 2.9 0 0.5-1.4 0.3-2.8-0.3-1.6-0.7-2.2-0.6-1 0.2 1.4 0.9 0.3 1.7-1.4 0.9-0.6-0.3-0.8-0.3-1.2 0.1-0.7 0.6-1 0.6-1.9 0.1-0.5-0.4-0.7-0.4-1.8 0.6-1.3 0.9-1.4 1.1-1.1 2 0.1 0.5-0.3 0.5-1.4 0.2-0.5-0.2-0.6-0.1-0.6 0.3 0 0.3-0.2 0.7-0.4 0.9-0.5 0.5 0 0.8 1.7 1.2 1.5 0.3 1.6 0.3 2.4-0.3 0.5-0.4 1.3-0.7 2-0.7 0.6 0 1.7-0.2 2.3-0.3 0.8-0.1 1.4 0 2.5 0.4 1.9 0.8 1.6 1.3-0.8 1.2-1.6 0-1.9 0-2.2 0.6q-0.5 0.6-1 0.4c-0.4-0.1-0.8 0-0.9 0.3-0.3 0.3-0.7 0.3-1.3 0.2-0.7-0.1-0.9 0-1.1 0.3 0 0.2-0.3 0.4-0.5 0.4-0.2 0-0.5 0.3-0.6 0.6-0.1 0.4 0 0.5 0.7 0.5 0.4 0 1.4 0.3 2.2 0.6 1.8 0.7 2.3 0.7 4.4 0 0.9-0.3 2.2-0.6 2.7-0.7 1-0.1 1.1-0.1 1.1 0.4 0 0.6-1.1 1.4-2 1.4-0.7 0-0.7 0.1-0.1 0.5 0.3 0.2 1.1 0.4 1.8 0.4 1 0 1.4 0.1 1.5 0.4 0.3 0.7-0.2 1.1-1.1 1.2-1.1 0-1.2 0.1-0.4 0.3 0.7 0.2 0.9 0.7 0.3 0.8-2.6 0.3-3.1 0.5-3.8 1.1l-0.8 0.7 0.9 0.9c1.1 1.2 1.1 1.5 0 1.7l-0.9 0.1 0.8 0.2q0.8 0.2 1.2-0.1c0.3-0.2 0.9-0.5 1.3-0.8 0.5-0.3 1.5-1.1 2.3-2 0.8-0.8 1.7-1.4 1.9-1.4 0.7 0 0.9 0.7 0.4 1.4-0.6 0.9-0.6 1.1 0.1 1.1q1.3 0 0.2 2.1-0.6 1.4-1.4 1.7c-0.8 0.3-0.8 0.3-0.6 1.5 0.2 1.2 0.2 1.2-1.3 1.6-0.3 0.1-0.3 0.2 0.1 0.5q0.5 0.4 0.3 0.9c-0.2 0.6-0.4 0.8-2.5 1.7-0.6 0.3-1 0.6-1 1 0 0.7-0.7 1.1-1.7 0.9-0.7-0.1-0.9 0-1 0.4-0.4 0.9-0.7 1-3 0.8q-2.1-0.2-2.3 0.1c-0.1 0.2-0.5 0.3-0.9 0.3-0.7 0-0.8 0.1-1.1 1.2-0.1 0.6-0.1 0.7 2 1 2 0.4 2.1 0.4 2.6-0.2 0.5-0.7 0.6-0.7 1.3-0.3 0.7 0.3 0.9 0.3 2.5-0.1 3.4-0.9 3.7-1 5-1 1.5 0 1.7 0.3 0.8 1.3-0.3 0.4-0.4 0.7-0.3 0.8 0.6 0.4 0 0.6-1.2 0.5q-1.3-0.2-1.3 0.1c0 0.2 0.3 0.4 0.6 0.4 0.3 0 0.5 0.1 0.4 0.2-0.1 0.2-0.5 0.3-0.8 0.3-0.4 0-1 0.3-1.4 0.6-0.4 0.3-1 0.5-1.4 0.5-1.4-0.1-1.9 0.1-2 0.6-0.1 0.3-0.5 0.7-0.9 0.9-0.4 0.1-0.7 0.4-0.7 0.7 0 0.4-0.7 0.5-2.3 0.1-0.5-0.1-1.1-0.1-1.3-0.1-0.6 0.2-0.4 0.6 0.5 0.8 1.1 0.3 1.1 1 0 1q-0.8 0-1 0.5c-0.2 0.8-1.7 1-4.3 0.6-1.6-0.2-2.5-0.5-3.6-1.3-0.8-0.5-1.7-0.9-1.9-0.8-0.3 0.1-0.5 0.7-0.6 1.5-0.1 0.7-0.2 1.5-0.2 1.7-0.1 0.7-2.5 0.8-3 0.2zm5.8-9.3q1-0.7 0.3-1.1c-0.1-0.1-0.5 0-0.9 0.4q-0.6 0.5-1.2 0.4c-0.5-0.1-0.7-0.1-0.7 0.2 0 0.9 1.2 0.9 2.5 0.1zm2.9-1.2c0-0.4-1.5-1.5-1.7-1.3-0.1 0.1 1.1 1.5 1.5 1.5 0.1 0 0.2-0.1 0.2-0.2zm2.4-3c-0.3-0.3-0.9-0.4-1.3-0.4h-0.7l0.7 0.4c0.4 0.2 1 0.4 1.3 0.4 0.5 0 0.5 0 0-0.4zm-12-3.3c0-0.6-1.5-1.2-2.8-1.1-2.1 0.1-1.9 0.6 0.3 0.7 0.8 0.1 1.6 0.2 1.8 0.4 0.3 0.4 0.7 0.4 0.7 0zm11.7-6.6c-0.1-0.2-0.3-0.4-0.5-0.4-0.1 0-0.2 0.2-0.2 0.4 0 0.3 0.2 0.5 0.4 0.5 0.3 0 0.4-0.2 0.3-0.5zm2-0.5c0-0.9-0.6-1.5-1-1.1-0.2 0.1-0.2 0.7-0.1 1.2 0.2 1.1 1.1 1.1 1.1-0.1zm6 0l1.3-0.4-0.9-0.4c-0.8-0.5-0.9-0.5-1.5 0.2-0.3 0.3-0.5 0.7-0.4 0.8 0.1 0.1 0.2 0.2 0.2 0.2 0 0 0.6-0.2 1.3-0.4zm-20.7-7c-0.1-0.1-0.3-0.2-0.5-0.2-0.3 0-0.5-0.1-0.5-0.3 0-0.4-1.6-0.4-1.8 0-0.2 0.4 2.2 1.4 2.6 1.1 0.2-0.2 0.3-0.4 0.2-0.6zm15.6-29.6c1.1-0.1 1-0.6-0.2-1.1-1.8-0.7-3.3 0.1-2.2 1.2 0.2 0.2 0.6 0.3 1 0.2 0.4-0.1 1.1-0.3 1.4-0.3z"/>
		</g>
	</g>
	<g>
		<g>
			<g>
				<path class="s0" d="m76.2 52.9l1.1 5.9q1 0.6 2.8 1 1.7 0.4 3.4 0.4 1.7 0 3.3-0.4 1.6-0.4 2.8-1.2 1.2-0.8 1.9-1.9 0.7-1.1 0.7-2.5 0-1.7-0.9-2.8-0.9-1.1-2.4-1.9-1.4-0.8-3.2-1.4-1.8-0.7-3.7-1.3-2-0.9-3.8-1.8-1.8-0.8-3.3-2.1-1.4-1.3-2.3-3.1-0.8-1.8-0.8-4.5 0-2.8 1.1-4.9 1.1-2.1 2.9-3.4 1.8-1.4 4.3-2 2.5-0.7 5.2-0.7 1.2 0 2.6 0.2 1.4 0.2 2.8 0.4 1.4 0.3 2.5 0.6 1.2 0.3 2.1 0.5l1.8 0.6-0.3 9.6h-3.7l-1.9-6.1q-1.6-0.5-3.1-0.7-1.6-0.2-3.2-0.2-1.7 0-3 0.4-1.3 0.4-2.2 1.2-1 0.7-1.5 1.6-0.5 0.9-0.5 1.9 0.1 2.3 1.6 3.7 1.5 1.3 3.8 2.3 2.2 1 4.9 1.8 2.6 0.9 4.8 2.1 2.3 1.3 3.8 3.4 1.5 2 1.5 5.3 0 2.9-1.2 5.2-1.1 2.2-3.1 3.8-2 1.5-4.7 2.4-2.7 0.8-5.8 0.8-1.2 0-2.7-0.2-1.4-0.2-2.8-0.4-1.4-0.3-2.6-0.6-1.2-0.3-2-0.6l-1.5-0.5v-9.9z"/>
			</g>
		</g>
	</g>
	<g>
		<g>
			<g>
				<path class="s0" d="m113.9 26.5v8.3h8.2v4.2h-8.2v18.2q0 3.4 2.9 3.4 1.8 0 4.4-1.4l1.5 3q-3.9 2.8-7.9 2.8-2.9 0-4.7-1.9-1.8-1.9-1.8-6.3v-17.8h-5.7v-3.7l5.7-0.5v-7.1z"/>
			</g>
		</g>
	</g>
	<g>
		<g>
			<g>
				<path class="s0" d="m133.4 21.2q3.7 0 3.7 4.2 0 1.8-1.2 2.8-1.3 0.9-2.7 0.9-1.5 0-2.5-1-0.9-1.1-0.9-2.9 0-1.9 1-2.9 1-1.1 2.6-1.1zm3.1 13.3v25.4l4.3 1.4v3.1h-14.7v-3.1l4.8-1.4v-20.9l-4.8-1.1v-3.1z"/>
			</g>
		</g>
	</g>
	<g>
		<g>
			<g>
				<path class="s0" d="m154.7 20.9v39l5.7 1.4v3.1h-16.2v-3.1l4.8-1.4v-34.5l-4.8-1.1v-3.1z"/>
			</g>
		</g>
	</g>
	<g>
		<g>
			<g>
				<path class="s0" d="m172.6 20.9v39l5.7 1.4v3.1h-16.2v-3.1l4.8-1.4v-34.5l-4.8-1.1v-3.1z"/>
			</g>
		</g>
	</g>
	<g>
		<g>
			<g>
				<path class="s0" d="m191.6 34.5v3.4l-4.3 0.5 4.8 21 7.4-24.6 5.4-0.9 7 25.5 4.5-20.7-3.9-0.8v-3.1l12.7-0.3v3.4l-3.3 0.5-6.9 26h-6.5l-5.3-17.5-1.4-5.4-1.2 5.4-5.4 17.5h-6.5l-7-25.7-2.8-0.8v-3.1z"/>
			</g>
		</g>
	</g>
	<g>
		<g>
			<g>
				<path class="s0" d="m229.7 36.2q6.1-2.3 11.2-2.3 5 0 7.6 2 2.7 2.1 2.7 6.8v17.2l4.5 1.2v3.1l-8.8 0.2-1.1-3.9q-4.6 4.5-9 4.5-4.4 0-6.6-2.2-2.2-2.2-2.2-6.3 0-8.7 13-8.7h4.5v-4.5q0-5.1-5.3-5.1-3.1 0-5.1 0.6l-0.7 0.2-0.7 4.3h-3.7zm15.8 15.2h-3.9q-4.3 0-6.1 1.1-1.7 1.1-1.7 3.4 0 2.2 1 3.4 1.1 1.2 3 1.2 1 0 2-0.4 1-0.3 1.9-0.8 0.9-0.5 1.7-1.1 0.7-0.6 1.2-1.1l0.9-1.2z"/>
			</g>
		</g>
	</g>
	<g>
		<g>
			<g>
				<path class="s0" d="m269.8 26.5v8.3h8.2v4.2h-8.2v18.2q0 3.4 2.9 3.4 1.8 0 4.4-1.4l1.5 3q-3.9 2.8-7.9 2.8-2.9 0-4.7-1.9-1.8-1.9-1.8-6.3v-17.8h-5.7v-3.7l5.7-0.5v-7.1z"/>
			</g>
		</g>
	</g>
	<g>
		<g>
			<g>
				<path class="s0" d="m307.4 50.2l-19.5 0.1q0 4.7 2.2 7.4 2.3 2.8 6 2.8 1.2 0 2.5-0.2 1.2-0.3 2.3-0.6 1.1-0.3 2-0.8 0.9-0.4 1.6-0.8l1.1-0.7 2 2.9q-2 1.5-3.6 2.4-1.6 0.9-3.7 1.6-2.2 0.7-4.8 0.7-6.6 0-10.1-4-3.4-4.1-3.4-11.1 0-3.5 1-6.4 1-3 2.8-5.1 1.9-2.1 4.4-3.3 2.6-1.2 5.6-1.2 11.9 0 11.9 13.3zm-19.3-4.1h13.6q0-3.4-1.5-5.6-1.5-2.1-4.7-2.1-3.3 0-5.2 2.1-1.9 2.2-2.2 5.6z"/>
			</g>
		</g>
	</g>
	<g>
		<g>
			<g>
				<path class="s0" d="m321.2 34.5l0.6 4.1q4.1-4.7 8.5-4.7 2.3 0 4.5 0.7l0.6 0.2-0.3 8.2h-3.7l-0.8-4.3q-4.9 0-8.2 4.4v16.8l5.6 1.4v3.1h-16.1v-3.1l4.8-1.4v-20.9l-4.8-1.1v-3.1z"/>
			</g>
		</g>
	</g>
	<g>
		<g>
			<g>
				<path class="s0" d="m108.2 80.4h2.9l-7.1 20.2h-3.2l-8.1-17.2-8 17.2h-3.3l-7-20.2h2.8l5.9 17 7.9-17h3.4l7.9 17z"/>
			</g>
		</g>
	</g>
	<g>
		<g>
			<g>
				<path class="s0" d="m147.3 82.9h-17.8v6.7h16.1v2.4h-16.1v6.2h17.8v2.4h-20.5v-20.2h20.5z"/>
			</g>
		</g>
	</g>
	<g>
		<g>
			<g>
				<path class="s0" d="m164.6 100.6v-20.2h13.3q3.2 0 5.1 1.3 1.9 1.2 1.9 3.8v0.4q0 1.4-0.4 2.3-0.4 0.8-1 1.3-0.6 0.4-1.2 0.6 0.6 0.2 1.3 0.6 0.8 0.4 1.3 1.2 0.5 0.8 0.5 2.3v0.6q0 2.9-2.2 4.3-2.3 1.5-6.3 1.5zm2.8-11.9h10.5q2.3 0 3.2-0.6 1-0.6 1-2.2v-0.4q0-1.1-1-1.7-0.9-0.7-3.2-0.7h-10.5zm0 9.3h9.5q2.1 0 3.3-0.5 1.3-0.4 1.8-1.1 0.6-0.7 0.6-1.5v-0.7q0-1.6-1.4-2.1-1.3-0.5-4.3-0.5h-9.5z"/>
			</g>
		</g>
	</g>
	<g>
		<g>
			<g>
			</g>
		</g>
	</g>
	<g>
		<g>
			<g>
				<path class="s0" d="m239.5 80.4q4.2 0 6.8 0.8 2.7 0.7 4.1 2 1.4 1.4 1.9 3.1 0.5 1.7 0.5 3.7v1.5q0 1.9-0.5 3.6-0.5 1.7-1.9 2.9-1.4 1.2-4.1 1.9-2.6 0.7-6.8 0.7h-11.5v-20.2zm10.5 11.1v-1.5q0-1.6-0.4-2.8-0.4-1.3-1.5-2.2-1.2-0.9-3.2-1.4-2.1-0.5-5.4-0.5h-8.8v14.8h8.8q3.4 0 5.5-0.4 2.1-0.4 3.1-1.3 1.1-0.8 1.5-2 0.4-1.2 0.4-2.7z"/>
			</g>
		</g>
	</g>
	<g>
		<g>
			<g>
				<path class="s0" d="m291.3 82.9h-17.8v6.7h16v2.4h-16v6.2h17.8v2.4h-20.6v-20.2h20.6z"/>
			</g>
		</g>
	</g>
	<g>
		<g>
			<g>
				<path class="s0" d="m326.7 80.4h3.1l-11.1 20.2h-3.3l-11.1-20.2h3.3l9.5 17.4z"/>
			</g>
		</g>
	</g>
</svg>